<?xml version="1.0" standalone="no"?>
<!DOCTYPE svg PUBLIC "-//W3C//DTD SVG 20010904//EN"
 "http://www.w3.org/TR/2001/REC-SVG-20010904/DTD/svg10.dtd">
<svg version="1.0" xmlns="http://www.w3.org/2000/svg"
 width="576.000000pt" height="576.000000pt" viewBox="0 0 576.000000 576.000000"
 preserveAspectRatio="xMidYMid meet">
<metadata>
Created by potrace 1.14, written by Peter Selinger 2001-2017
</metadata>
<g transform="translate(0.000000,576.000000) scale(0.100000,-0.100000)"
fill="#000000" stroke="none">
<path d="M1737 5423 c-61 -32 -97 -126 -75 -198 5 -16 11 -37 13 -45 8 -29 44
-156 60 -210 9 -30 18 -62 20 -70 20 -75 38 -138 43 -150 3 -8 6 -19 8 -25 7
-27 119 -421 176 -620 11 -38 28 -99 39 -135 10 -36 25 -90 34 -120 9 -30 17
-62 20 -70 2 -8 8 -27 14 -42 6 -16 9 -28 7 -28 -2 0 3 -21 11 -47 8 -27 21
-70 28 -96 l13 -48 -56 1 c-31 0 -66 0 -77 -1 -28 0 -157 0 -175 0 -70 2 -102
1 -108 -3 -5 -3 -14 -1 -21 3 -7 5 -30 5 -52 1 -22 -4 -41 -4 -44 0 -2 4 -25
4 -50 0 -25 -4 -45 -4 -45 -1 0 3 -24 5 -52 4 -29 -1 -62 -3 -73 -3 -23 -1
-173 -2 -192 -1 -91 3 -65 -23 -307 300 -123 163 -236 305 -251 315 -16 10
-51 21 -79 23 -28 2 -56 6 -63 8 -7 2 -15 0 -18 -6 -4 -5 -11 -7 -16 -3 -11 6
-323 6 -356 0 -41 -8 -80 -38 -97 -73 -20 -42 -20 -64 0 -133 8 -30 19 -71 24
-90 4 -19 16 -60 25 -90 9 -30 25 -86 36 -125 27 -92 32 -110 69 -240 17 -60
40 -139 50 -175 10 -36 26 -90 35 -120 9 -30 20 -71 25 -90 4 -19 15 -59 24
-89 l15 -53 -70 -242 c-38 -132 -71 -248 -73 -256 -11 -43 -118 -421 -163
-573 -14 -50 -15 -66 -4 -105 19 -71 70 -101 169 -99 34 1 62 0 62 -3 0 -3 26
-4 57 -2 32 1 74 2 93 2 19 -1 42 -1 50 -1 8 1 38 0 65 0 28 -1 58 -1 67 -1
38 1 92 38 133 91 24 31 51 64 60 74 8 9 15 19 15 21 0 8 224 301 232 304 4 2
8 8 8 13 0 5 23 39 51 75 49 62 54 65 90 63 21 -2 41 -1 44 2 3 3 24 3 48 0
23 -4 61 -4 85 -1 24 4 45 4 47 0 2 -3 31 -3 64 0 34 3 61 3 61 0 0 -3 50 -5
110 -5 61 0 110 3 110 6 0 3 23 3 50 -1 28 -4 50 -3 50 0 0 4 20 4 43 0 24 -3
52 -3 63 0 10 4 29 4 40 -1 12 -4 24 -6 26 -4 3 4 32 5 112 5 28 1 29 0 22
-41 -4 -23 -10 -47 -14 -53 -3 -6 -7 -15 -8 -21 -3 -17 -65 -236 -91 -320 -14
-44 -26 -87 -28 -95 -14 -64 -29 -117 -38 -128 -5 -6 -7 -12 -4 -12 4 0 0 -18
-8 -40 -8 -22 -12 -40 -8 -40 3 0 1 -6 -5 -13 -6 -6 -11 -15 -11 -19 -1 -5 -1
-9 -2 -10 0 -2 -2 -10 -4 -18 -1 -8 -8 -35 -15 -60 -7 -25 -13 -49 -15 -55 -1
-5 -5 -17 -8 -25 -3 -8 -18 -58 -32 -110 -14 -52 -35 -126 -46 -163 -12 -37
-22 -75 -24 -85 -2 -9 -4 -17 -5 -17 -1 0 -3 -7 -5 -15 -1 -8 -15 -55 -30
-105 -25 -83 -40 -137 -49 -175 -2 -8 -12 -41 -21 -73 -23 -79 -14 -126 35
-176 29 -30 49 -41 82 -46 24 -3 185 -5 358 -3 l315 3 57 28 c56 28 125 94
151 146 18 35 41 75 47 81 3 3 16 28 30 55 14 28 27 52 31 55 3 3 20 32 39 65
33 60 52 93 91 163 12 20 33 57 47 82 14 25 36 62 49 82 12 21 23 42 23 48 0
5 5 10 10 10 6 0 10 9 10 20 0 11 5 20 10 20 6 0 10 4 10 10 0 5 18 39 40 75
22 36 40 69 40 74 0 5 6 16 13 23 10 11 22 31 71 123 6 11 14 22 17 25 3 3 18
31 34 62 16 32 33 58 37 58 4 0 8 6 8 13 0 7 13 33 28 58 16 24 45 74 65 112
21 37 58 101 82 143 25 42 45 77 45 79 0 3 25 45 55 96 30 50 55 95 55 99 0
12 31 16 75 10 22 -3 75 -3 117 0 42 3 87 2 100 -1 13 -3 40 -2 60 1 20 4 42
4 48 0 6 -4 29 -4 51 0 22 4 41 4 44 0 2 -4 25 -4 50 0 25 4 45 4 45 1 0 -3
24 -5 52 -4 87 4 90 4 180 3 48 -1 92 1 97 4 5 4 12 3 15 -2 2 -4 32 -5 65 -2
34 3 61 2 61 -2 0 -4 6 -6 13 -3 6 2 64 6 127 9 333 16 704 209 848 440 20 33
37 62 38 65 0 3 5 24 12 45 20 69 9 165 -29 242 -111 225 -495 448 -826 479
-76 7 -171 7 -182 0 -5 -3 -12 -2 -15 3 -2 4 -32 5 -65 2 -34 -3 -61 -3 -61 0
0 5 -105 4 -268 -3 -34 -1 -62 0 -62 3 0 4 -27 4 -125 0 -11 -1 -38 -1 -60 -1
-22 0 -47 0 -55 0 -8 0 -66 0 -128 1 -62 1 -115 1 -117 -1 -2 -2 -25 -3 -52
-1 -47 4 -50 5 -73 50 -13 26 -31 58 -40 72 -10 14 -34 57 -55 95 -20 39 -44
77 -51 86 -8 8 -14 18 -14 22 0 3 -13 28 -29 55 -36 61 -78 135 -107 188 -19
36 -37 67 -81 139 -6 11 -27 48 -45 83 -18 35 -39 68 -45 74 -7 6 -13 14 -13
18 0 5 -22 46 -48 92 -26 46 -51 90 -55 98 -4 8 -15 29 -26 45 -10 17 -28 48
-41 70 -12 22 -37 65 -54 95 -18 30 -89 153 -157 274 -68 120 -140 237 -160
260 -20 23 -63 55 -95 71 l-59 30 -345 1 c-286 2 -350 -1 -373 -13z"/>
</g>
</svg>
