<?xml version="1.0" standalone="no"?>
<!DOCTYPE svg PUBLIC "-//W3C//DTD SVG 20010904//EN"
 "http://www.w3.org/TR/2001/REC-SVG-20010904/DTD/svg10.dtd">
<svg version="1.0" xmlns="http://www.w3.org/2000/svg"
 width="700.000000pt" height="700.000000pt" viewBox="0 0 700.000000 700.000000"
 preserveAspectRatio="xMidYMid meet">
<metadata>
Created by potrace 1.14, written by Peter Selinger 2001-2017
</metadata>
<g transform="translate(0.000000,700.000000) scale(0.100000,-0.100000)"
fill="#000000" stroke="none">
<path d="M0 3500 l0 -3500 3500 0 3500 0 0 3500 0 3500 -3500 0 -3500 0 0
-3500z m2845 1718 c341 -133 739 -288 885 -345 l265 -103 535 264 535 263 382
17 c380 17 381 17 440 -4 120 -42 183 -112 183 -207 1 -215 -137 -534 -316
-731 -127 -141 -549 -386 -1549 -900 -220 -113 -576 -293 -792 -399 l-392
-193 -663 0 -663 0 -360 416 c-198 229 -370 429 -383 444 l-22 28 256 131 257
131 286 -125 286 -126 395 191 c217 106 398 195 403 199 4 4 -296 207 -667
452 -372 244 -672 447 -668 451 10 10 725 386 737 387 5 1 288 -108 630 -241z
m3895 -3343 l0 -305 -3240 0 -3240 0 0 305 0 305 3240 0 3240 0 0 -305z"/>
</g>
</svg>
