<?xml version="1.0" standalone="no"?>
<!DOCTYPE svg PUBLIC "-//W3C//DTD SVG 20010904//EN"
 "http://www.w3.org/TR/2001/REC-SVG-20010904/DTD/svg10.dtd">
<svg version="1.0" xmlns="http://www.w3.org/2000/svg"
 width="700.000000pt" height="700.000000pt" viewBox="0 0 700.000000 700.000000"
 preserveAspectRatio="xMidYMid meet">
<metadata>
Created by potrace 1.14, written by Peter Selinger 2001-2017
</metadata>
<g transform="translate(0.000000,700.000000) scale(0.100000,-0.100000)"
fill="#000000" stroke="none">
<path d="M0 3500 l0 -3500 3500 0 3500 0 0 3500 0 3500 -3500 0 -3500 0 0
-3500z m6767 3266 c7 -7 6 -6526 -1 -6533 -7 -7 -6525 -7 -6532 0 -7 7 -7
6523 -1 6534 6 9 6525 8 6534 -1z"/>
<path d="M2670 5875 c-79 -27 -118 -109 -92 -195 7 -25 15 -52 17 -61 2 -9 27
-97 55 -195 29 -98 53 -186 55 -194 2 -8 33 -118 70 -245 37 -126 73 -254 81
-284 8 -30 35 -125 60 -210 25 -86 52 -178 59 -206 8 -27 23 -79 34 -115 11
-35 18 -66 16 -68 -2 -2 -216 -5 -475 -5 l-471 -1 -22 25 c-12 13 -109 140
-215 282 -121 161 -205 263 -223 273 -24 12 -73 15 -259 15 -245 0 -270 -4
-304 -53 -33 -47 -30 -77 40 -319 36 -129 70 -247 74 -264 5 -16 42 -148 83
-292 l76 -261 -145 -504 c-79 -276 -147 -518 -150 -537 -10 -58 27 -120 85
-142 13 -5 124 -9 246 -9 257 2 262 3 334 100 22 30 49 66 60 80 10 14 85 113
166 220 l147 195 478 1 477 0 -9 -35 c-5 -20 -28 -99 -50 -176 -22 -77 -42
-147 -43 -155 -2 -8 -70 -244 -150 -525 -81 -280 -148 -517 -150 -525 -2 -8
-15 -53 -29 -100 -32 -107 -33 -157 -3 -201 45 -68 55 -70 407 -67 l315 3 59
30 c87 44 78 30 395 588 13 23 123 215 244 427 121 212 232 406 246 431 14 25
59 104 100 175 l73 129 557 1 c306 0 584 3 618 7 157 16 352 90 513 195 75 48
200 177 228 234 76 156 46 294 -98 438 -125 126 -320 232 -527 287 l-98 26
-593 1 c-356 1 -596 6 -601 12 -5 5 -35 54 -66 109 -32 55 -65 114 -75 131
-64 111 -566 989 -668 1169 -69 121 -139 237 -155 258 -36 46 -89 81 -148 98
-55 15 -605 19 -649 4z"/>
</g>
</svg>
