<?xml version="1.0" standalone="no"?>
<!DOCTYPE svg PUBLIC "-//W3C//DTD SVG 20010904//EN"
 "http://www.w3.org/TR/2001/REC-SVG-20010904/DTD/svg10.dtd">
<svg version="1.0" xmlns="http://www.w3.org/2000/svg"
 width="700.000000pt" height="700.000000pt" viewBox="0 0 700.000000 700.000000"
 preserveAspectRatio="xMidYMid meet">
<metadata>
Created by potrace 1.14, written by Peter Selinger 2001-2017
</metadata>
<g transform="translate(0.000000,700.000000) scale(0.100000,-0.100000)"
fill="#000000" stroke="none">
<path d="M0 4245 l0 -2755 3500 0 3500 0 0 2755 0 2755 -3500 0 -3500 0 0
-2755z m2617 951 c301 -117 747 -291 991 -386 l443 -173 182 88 c100 49 367
181 592 293 l410 205 440 20 440 20 55 -22 c83 -31 146 -75 177 -122 25 -39
28 -50 26 -123 -4 -210 -111 -492 -264 -696 -103 -138 -139 -172 -294 -275
-332 -221 -917 -536 -2073 -1117 l-753 -378 -758 0 -758 0 -419 485 c-230 266
-419 489 -419 495 0 6 126 76 281 155 l281 144 321 -141 321 -140 450 218
c248 120 451 221 451 224 0 3 -340 228 -755 500 -415 272 -755 497 -755 500 0
5 820 438 832 439 3 1 253 -95 555 -213z"/>
<path d="M0 445 l0 -445 3500 0 3500 0 0 445 0 445 -3500 0 -3500 0 0 -445z"/>
</g>
</svg>
